<?xml version="1.0" standalone="no"?>
<!DOCTYPE svg PUBLIC "-//W3C//DTD SVG 20010904//EN"
 "http://www.w3.org/TR/2001/REC-SVG-20010904/DTD/svg10.dtd">
<svg version="1.0" xmlns="http://www.w3.org/2000/svg"
 width="512.000000pt" height="512.000000pt" viewBox="0 0 512.000000 512.000000"
 preserveAspectRatio="xMidYMid meet">
<metadata>
Created by potrace 1.16, written by Peter Selinger 2001-2019
</metadata>
<g transform="translate(0.000000,512.000000) scale(0.100000,-0.100000)"
fill="#000000" stroke="none">
<path d="M2489 4147 c-1334 -535 -2434 -978 -2443 -986 -34 -29 -48 -72 -44
-133 4 -49 9 -64 34 -88 19 -20 358 -189 979 -491 523 -253 955 -466 962 -472
6 -7 216 -434 467 -950 250 -517 462 -950 471 -963 57 -87 213 -85 259 3 8 16
448 1111 978 2433 944 2358 963 2406 963 2472 0 65 -2 69 -37 105 -34 34 -43
37 -100 40 -62 2 -84 -6 -2489 -970z m700 -733 l-1126 -1126 -761 368 c-418
203 -758 371 -755 374 4 4 3751 1507 3763 1509 3 1 -502 -506 -1121 -1125z
m599 -981 c-413 -1033 -754 -1881 -757 -1885 -3 -3 -172 336 -375 754 l-368
761 1123 1123 c618 618 1125 1124 1125 1124 1 0 -336 -845 -748 -1877z"/>
</g>
</svg>
